<svg width="678" height="533" viewBox="0 0 678 533" fill="none" xmlns="http://www.w3.org/2000/svg">
<path fill-rule="evenodd" clip-rule="evenodd" d="M194 71C162 106.6 126.333 178.5 112.5 210C111 213 107.5 220.7 105.5 227.5C104.981 229.263 104.205 231.65 103.29 234.46L103.29 234.461C99.7962 245.198 94.2926 262.112 93.5 274C92.5 289 92.5 308.5 100 324.5C107.5 340.5 117.5 348 131 355.5C144.5 363 173 358.5 187 354C201 349.5 238 328 257.5 314C273.1 302.8 340.667 252.667 372.5 229C373.167 232.5 375.1 241.9 377.5 251.5C380.5 263.5 386.5 282 393 297C399.5 312 414.5 329.5 422 335.5C429.5 341.5 449.5 342.5 466 336C479.2 330.8 491.833 321.833 496.5 318C501 323 512.1 333.5 520.5 335.5C531 338 535 337 543 332.5C551 328 570 301.5 578.5 279.5C586.871 257.835 583.119 254.111 582.048 253.047L582 253C581.981 252.981 581.961 252.961 581.939 252.938C580.787 251.766 574.986 245.865 548 265C526 280.6 510.5 292.833 505.5 297C503.333 294.167 496.8 285.9 488 275.5L487.099 274.435C475.735 261.001 452.603 233.656 438 221C423 208 408.5 201.5 400 199.5C393.2 197.9 384.5 198.5 381 199C378.833 187.5 373.6 158.9 370 136.5C365.5 108.5 358.5 83.5 345 50C331.5 16.5 315 0.999981 287 0.499981C259 -1.92225e-05 234 26.5 194 71ZM188.5 123.5C196.333 110.167 215.9 79.7 231.5 64.5C251 45.5 271.5 31 289 30.5C306.5 30 316.5 35.5 326.5 49C336.5 62.5 342 81 347.5 103C351.9 120.6 363.333 177.667 368.5 204L253 290C238 301.167 202.3 325.6 179.5 334C151 344.5 123.5 347.5 116 334C108.5 320.5 109 307.5 112.5 291C116 274.5 128.5 234 138 213.5C145.6 197.1 174.833 146.667 188.5 123.5ZM384 226.5C385.167 233 389 250.6 395 269C402.5 292 418.5 309.5 429 315C439.5 320.5 456.5 324.5 473 319.5C486.2 315.5 492.167 310.833 493.5 309C486.5 301 469.9 281.8 459.5 269C446.5 253 427 235 411 229.5C398.2 225.1 387.667 225.667 384 226.5ZM556 270C546.4 276 523 296.167 512.5 305.5C518.333 312.667 532 326.5 540 324.5C549.245 322.189 553.362 313.895 560.252 300.013C560.815 298.879 561.396 297.708 562 296.5C570 280.5 573.5 272 572.5 267.5C571.5 263 568 262.5 556 270ZM217 420.5V405.5H231.5V420.5H217ZM16 433.5V480.5C15.3333 486 17.6 497 32 497H53.5V433.5H68.5V507.5H21C4.5 507.5 1.00002 489.5 1.50002 470C1.90002 454.4 1.66669 439.167 1.50002 433.5H16ZM91 433.5H135.5C153 433.5 161 452 161.5 460C161.826 465.218 161.727 468.522 161.618 472.131V472.131C161.56 474.055 161.5 476.066 161.5 478.5C161.5 485.5 153.5 507.5 131.5 507.5H106.5V532H91V433.5ZM179.5 507.5V433.5H194V507.5H179.5ZM217 433.5H231.5V507.5H217V433.5ZM179.5 420.5H194V405.5H179.5V420.5ZM261.5 433.5V405.5H276.5V433.5H299V444.5H276.5V485.5C276.5 494 279 496.5 285 496.5H299V507.5H279C270.5 507.5 261.5 503 261.5 491.5V444.5H246.5V433.5H261.5ZM312.5 433.5H363.5C377 433.5 382.5 443.5 382.5 452V507.5H332.5C322 507.5 309 503 309.5 485.5C310 468 321 462.5 330 462.5H367.5C368.167 459 368.3 451.1 363.5 447.5C358.7 443.9 327.5 444 312.5 444.5V433.5ZM452 484.5H405.5V469.5H452V484.5ZM483.5 507.5V433.5H498V507.5H483.5ZM483.5 421V405.5H498V421H483.5ZM522.5 433.5V532H538V508.5H560.5C574.5 508.5 591.5 500.5 593 479C594.5 457.5 589.5 445.5 582 440C574.5 434.5 567.5 433.5 562 433.5H522.5ZM609.5 508.5V433.5H642C643.098 433.5 644.143 433.493 645.146 433.487H645.146C652.812 433.438 657.983 433.405 665.5 436.5C674 440 677 451 677 459.5V508.5H662V468C662 461.5 661.5 454 659 450C656.5 446 651 445 646.5 445H625V508.5H609.5ZM538 497V445H559C572 445 577.5 455.5 577.5 470C577.5 484.5 575 497 559 497H538ZM107 496.5V445.5H127C138.5 445.5 146.5 451.5 146.5 467.5C146.5 483.5 141 496.5 127 496.5H107ZM337.5 474H367V496H337.5C328.5 496 325 492.5 325.5 485C326 477.5 330 474 337.5 474Z" fill="black"/>
<path d="M112.5 210L112.947 210.224L112.953 210.212L112.958 210.201L112.5 210ZM194 71L193.628 70.6657L194 71ZM105.5 227.5L105.02 227.359L105.5 227.5ZM103.29 234.46L103.765 234.618L103.766 234.615L103.29 234.46ZM103.29 234.461L102.816 234.303L102.815 234.306L103.29 234.461ZM93.5 274L93.0011 273.967L93.5 274ZM131 355.5L130.757 355.937L131 355.5ZM257.5 314L257.792 314.406L257.5 314ZM372.5 229L372.991 228.906L372.842 228.123L372.202 228.599L372.5 229ZM377.5 251.5L377.015 251.621L377.5 251.5ZM466 336L466.183 336.465L466 336ZM496.5 318L496.872 317.666L496.552 317.31L496.183 317.614L496.5 318ZM520.5 335.5L520.616 335.014L520.5 335.5ZM578.5 279.5L578.966 279.68L578.5 279.5ZM582.048 253.047L581.695 253.402L581.696 253.402L582.048 253.047ZM582 253L581.647 253.354L581.647 253.354L582 253ZM581.939 252.938L582.296 252.588V252.588L581.939 252.938ZM548 265L548.289 265.408L548 265ZM505.5 297L505.103 297.304L505.42 297.718L505.82 297.384L505.5 297ZM488 275.5L487.618 275.823L487.618 275.823L488 275.5ZM487.099 274.435L486.717 274.758L486.717 274.758L487.099 274.435ZM438 221L438.327 220.622L438 221ZM400 199.5L399.885 199.987L400 199.5ZM381 199L380.509 199.093L380.597 199.563L381.071 199.495L381 199ZM370 136.5L369.506 136.579L370 136.5ZM345 50L345.464 49.8131L345 50ZM287 0.499981L287.009 6.04987e-05L287 0.499981ZM231.5 64.5L231.151 64.1419L231.5 64.5ZM188.5 123.5L188.931 123.754L188.931 123.753L188.5 123.5ZM326.5 49L326.098 49.2976L326.5 49ZM347.5 103L347.985 102.879L347.5 103ZM368.5 204L368.799 204.401L369.051 204.213L368.991 203.904L368.5 204ZM253 290L253.299 290.401L253.299 290.401L253 290ZM179.5 334L179.327 333.531L179.5 334ZM138 213.5L137.546 213.29L138 213.5ZM395 269L395.475 268.845L395 269ZM384 226.5L383.889 226.012L383.423 226.118L383.508 226.588L384 226.5ZM473 319.5L472.855 319.021L473 319.5ZM493.5 309L493.904 309.294L494.139 308.971L493.876 308.671L493.5 309ZM459.5 269L459.112 269.315L459.5 269ZM411 229.5L411.163 229.027L411 229.5ZM512.5 305.5L512.168 305.126L511.81 305.444L512.112 305.816L512.5 305.5ZM556 270L556.265 270.424L556 270ZM560.252 300.013L560.7 300.235V300.235L560.252 300.013ZM562 296.5L562.447 296.724L562 296.5ZM217 405.5V405H216.5V405.5H217ZM217 420.5H216.5V421H217V420.5ZM231.5 405.5H232V405H231.5V405.5ZM231.5 420.5V421H232V420.5H231.5ZM16 480.5L16.4964 480.56L16.5 480.53V480.5H16ZM16 433.5H16.5V433H16V433.5ZM53.5 497V497.5H54V497H53.5ZM53.5 433.5V433H53V433.5H53.5ZM68.5 433.5H69V433H68.5V433.5ZM68.5 507.5V508H69V507.5H68.5ZM1.50002 470L1.99986 470.013L1.50002 470ZM1.50002 433.5V433H0.985098L1.00024 433.515L1.50002 433.5ZM91 433.5V433H90.5V433.5H91ZM161.618 472.131L161.119 472.116L161.118 472.123V472.131H161.618ZM161.618 472.131L162.118 472.146L162.118 472.138V472.131H161.618ZM106.5 507.5V507H106V507.5H106.5ZM106.5 532V532.5H107V532H106.5ZM91 532H90.5V532.5H91V532ZM179.5 433.5V433H179V433.5H179.5ZM179.5 507.5H179V508H179.5V507.5ZM194 433.5H194.5V433H194V433.5ZM194 507.5V508H194.5V507.5H194ZM231.5 433.5H232V433H231.5V433.5ZM217 433.5V433H216.5V433.5H217ZM231.5 507.5V508H232V507.5H231.5ZM217 507.5H216.5V508H217V507.5ZM194 420.5V421H194.5V420.5H194ZM179.5 420.5H179V421H179.5V420.5ZM194 405.5H194.5V405H194V405.5ZM179.5 405.5V405H179V405.5H179.5ZM261.5 405.5V405H261V405.5H261.5ZM261.5 433.5V434H262V433.5H261.5ZM276.5 405.5H277V405H276.5V405.5ZM276.5 433.5H276V434H276.5V433.5ZM299 433.5H299.5V433H299V433.5ZM299 444.5V445H299.5V444.5H299ZM276.5 444.5V444H276V444.5H276.5ZM299 496.5H299.5V496H299V496.5ZM299 507.5V508H299.5V507.5H299ZM261.5 444.5H262V444H261.5V444.5ZM246.5 444.5H246V445H246.5V444.5ZM246.5 433.5V433H246V433.5H246.5ZM312.5 433.5V433H312V433.5H312.5ZM382.5 507.5V508H383V507.5H382.5ZM367.5 462.5V463H367.914L367.991 462.594L367.5 462.5ZM312.5 444.5H312V445.017L312.517 445L312.5 444.5ZM405.5 484.5H405V485H405.5V484.5ZM452 484.5V485H452.5V484.5H452ZM405.5 469.5V469H405V469.5H405.5ZM452 469.5H452.5V469H452V469.5ZM483.5 433.5V433H483V433.5H483.5ZM483.5 507.5H483V508H483.5V507.5ZM498 433.5H498.5V433H498V433.5ZM498 507.5V508H498.5V507.5H498ZM483.5 405.5V405H483V405.5H483.5ZM483.5 421H483V421.5H483.5V421ZM498 405.5H498.5V405H498V405.5ZM498 421V421.5H498.5V421H498ZM522.5 532H522V532.5H522.5V532ZM522.5 433.5V433H522V433.5H522.5ZM538 532V532.5H538.5V532H538ZM538 508.5V508H537.5V508.5H538ZM609.5 433.5V433H609V433.5H609.5ZM609.5 508.5H609V509H609.5V508.5ZM645.146 433.487V432.987H645.142L645.146 433.487ZM645.146 433.487V433.987H645.149L645.146 433.487ZM665.5 436.5L665.31 436.962L665.5 436.5ZM677 508.5V509H677.5V508.5H677ZM662 508.5H661.5V509H662V508.5ZM625 445V444.5H624.5V445H625ZM625 508.5V509H625.5V508.5H625ZM538 445V444.5H537.5V445H538ZM538 497H537.5V497.5H538V497ZM107 445.5V445H106.5V445.5H107ZM107 496.5H106.5V497H107V496.5ZM367 474H367.5V473.5H367V474ZM367 496V496.5H367.5V496H367ZM112.958 210.201C119.869 194.464 132.237 168.628 146.875 142.28C161.516 115.925 178.411 89.0908 194.372 71.3342L193.628 70.6657C177.589 88.5092 160.65 115.425 146 141.795C131.346 168.172 118.965 194.036 112.042 209.799L112.958 210.201ZM105.98 227.641C107.968 220.881 111.454 213.21 112.947 210.224L112.053 209.776C110.546 212.79 107.032 220.519 105.02 227.359L105.98 227.641ZM103.766 234.615C104.679 231.808 105.459 229.413 105.98 227.641L105.02 227.359C104.504 229.114 103.73 231.493 102.815 234.306L103.766 234.615ZM103.764 234.619L103.765 234.618L102.816 234.302L102.816 234.303L103.764 234.619ZM93.9989 274.033C94.7864 262.221 100.265 245.375 103.766 234.616L102.815 234.306C99.3279 245.022 93.7988 262.002 93.0011 273.967L93.9989 274.033ZM100.453 324.288C93.011 308.412 92.9995 289.024 93.9989 274.033L93.0011 273.967C92.0006 288.976 91.9891 308.588 99.5473 324.712L100.453 324.288ZM131.243 355.063C117.79 347.589 107.891 340.155 100.453 324.288L99.5473 324.712C107.109 340.845 117.21 348.411 130.757 355.937L131.243 355.063ZM186.847 353.524C179.885 355.762 169.3 358.004 158.777 358.751C148.229 359.5 137.857 358.737 131.243 355.063L130.757 355.937C137.643 359.763 148.271 360.5 158.848 359.749C169.45 358.996 180.115 356.738 187.153 354.476L186.847 353.524ZM257.208 313.594C247.477 320.581 233.367 329.446 219.939 337.129C206.498 344.818 193.79 351.292 186.847 353.524L187.153 354.476C194.21 352.208 207.002 345.682 220.436 337.996C233.883 330.304 248.023 321.419 257.792 314.406L257.208 313.594ZM372.202 228.599C340.366 252.267 272.804 302.397 257.208 313.594L257.792 314.406C273.396 303.203 340.967 253.066 372.798 229.401L372.202 228.599ZM377.985 251.379C375.588 241.79 373.656 232.399 372.991 228.906L372.009 229.094C372.677 232.601 374.612 242.01 377.015 251.621L377.985 251.379ZM393.459 296.801C386.97 281.828 380.979 263.354 377.985 251.379L377.015 251.621C380.021 263.646 386.03 282.172 392.541 297.199L393.459 296.801ZM422.312 335.11C418.604 332.143 413.006 326.301 407.518 319.316C402.032 312.334 396.685 304.247 393.459 296.801L392.541 297.199C395.815 304.753 401.218 312.916 406.732 319.934C412.244 326.949 417.896 332.857 421.688 335.89L422.312 335.11ZM465.817 335.535C457.634 338.758 448.576 340.124 440.637 339.938C432.672 339.751 425.933 338.006 422.312 335.11L421.688 335.89C425.567 338.994 432.578 340.749 440.613 340.937C448.674 341.126 457.866 339.742 466.183 336.465L465.817 335.535ZM496.183 317.614C491.541 321.427 478.953 330.36 465.817 335.535L466.183 336.465C479.447 331.24 492.126 322.24 496.817 318.386L496.183 317.614ZM520.616 335.014C516.53 334.041 511.727 330.977 507.349 327.484C502.986 324.003 499.106 320.148 496.872 317.666L496.128 318.334C498.394 320.852 502.314 324.747 506.726 328.266C511.123 331.773 516.07 334.959 520.384 335.986L520.616 335.014ZM542.755 332.064C538.766 334.308 535.832 335.645 532.613 336.131C529.394 336.616 525.843 336.258 520.616 335.014L520.384 335.986C525.657 337.242 529.356 337.634 532.762 337.119C536.169 336.605 539.234 335.192 543.245 332.936L542.755 332.064ZM578.034 279.32C573.802 290.274 566.948 302.364 560.15 312.28C556.752 317.236 553.374 321.642 550.351 325.084C547.316 328.54 544.676 330.984 542.755 332.064L543.245 332.936C545.325 331.766 548.059 329.21 551.102 325.744C554.158 322.265 557.56 317.826 560.975 312.845C567.802 302.886 574.699 290.726 578.966 279.68L578.034 279.32ZM581.696 253.402C581.947 253.652 582.331 254.033 582.665 254.786C583.003 255.547 583.302 256.718 583.315 258.552C583.339 262.231 582.211 268.509 578.034 279.32L578.966 279.68C583.16 268.826 584.341 262.41 584.315 258.545C584.301 256.606 583.985 255.293 583.579 254.38C583.171 253.459 582.684 252.974 582.4 252.693L581.696 253.402ZM581.647 253.354L581.695 253.402L582.4 252.693L582.353 252.646L581.647 253.354ZM581.582 253.289C581.604 253.311 581.626 253.333 581.647 253.354L582.353 252.646C582.336 252.629 582.318 252.61 582.296 252.588L581.582 253.289ZM548.289 265.408C561.762 255.855 569.882 252.6 574.734 251.848C577.15 251.473 578.738 251.722 579.771 252.106C580.797 252.488 581.314 253.016 581.582 253.289L582.296 252.588C581.988 252.275 581.348 251.626 580.119 251.169C578.896 250.714 577.131 250.464 574.58 250.86C569.497 251.648 561.224 255.01 547.711 264.592L548.289 265.408ZM505.82 297.384C510.808 293.227 526.297 281.002 548.289 265.408L547.711 264.592C525.703 280.198 510.192 292.439 505.18 296.616L505.82 297.384ZM487.618 275.823C496.414 286.218 502.942 294.478 505.103 297.304L505.897 296.696C503.725 293.856 497.186 285.582 488.382 275.177L487.618 275.823ZM486.717 274.758L487.618 275.823L488.382 275.177L487.481 274.112L486.717 274.758ZM437.673 221.378C452.239 234.002 475.342 261.31 486.717 274.758L487.481 274.112C476.129 260.692 452.967 233.31 438.327 220.622L437.673 221.378ZM399.885 199.987C408.296 201.966 422.724 208.423 437.673 221.378L438.327 220.622C423.276 207.577 408.704 201.034 400.115 199.013L399.885 199.987ZM381.071 199.495C384.546 198.999 393.174 198.408 399.885 199.987L400.115 199.013C393.226 197.392 384.455 198.001 380.929 198.505L381.071 199.495ZM369.506 136.579C373.107 158.986 378.342 187.591 380.509 199.093L381.491 198.907C379.325 187.409 374.093 158.814 370.494 136.421L369.506 136.579ZM344.536 50.1869C358.024 83.6576 365.013 108.621 369.506 136.579L370.494 136.421C365.987 108.379 358.976 83.3424 345.464 49.8131L344.536 50.1869ZM286.991 0.999901C300.89 1.24809 311.897 5.2144 321.109 13.2517C330.336 21.3025 337.799 33.4696 344.536 50.1869L345.464 49.8131C338.701 33.0303 331.164 20.6975 321.766 12.4982C312.353 4.28556 301.11 0.251868 287.009 6.04987e-05L286.991 0.999901ZM194.372 71.3342C214.379 49.0768 230.602 31.3576 245.318 19.2612C260.03 7.16736 273.165 0.753005 286.991 0.999901L287.009 6.04987e-05C272.835 -0.253043 259.47 6.3326 244.683 18.4887C229.898 30.6424 213.622 48.4231 193.628 70.6657L194.372 71.3342ZM231.151 64.1419C215.498 79.3934 195.902 109.913 188.069 123.247L188.931 123.753C196.764 110.42 216.302 80.0066 231.849 64.8581L231.151 64.1419ZM288.986 30.0002C280.11 30.2538 270.522 34.0532 260.736 40.1379C250.944 46.2262 240.916 54.6277 231.151 64.1419L231.849 64.8581C241.584 55.3723 251.556 47.0238 261.264 40.9871C270.978 34.9468 280.39 31.2462 289.014 30.9998L288.986 30.0002ZM326.902 48.7024C321.874 41.9155 316.819 37.1009 310.788 34.0537C304.755 31.0056 297.792 29.7486 288.986 30.0002L289.014 30.9998C297.708 30.7514 304.495 31.9944 310.337 34.9463C316.181 37.8991 321.126 42.5845 326.098 49.2976L326.902 48.7024ZM347.985 102.879C342.488 80.8885 336.969 62.2933 326.902 48.7024L326.098 49.2976C336.031 62.7066 341.512 81.1114 347.015 103.121L347.985 102.879ZM368.991 203.904C363.825 177.577 352.389 120.494 347.985 102.879L347.015 103.121C351.411 120.706 362.841 177.757 368.009 204.096L368.991 203.904ZM253.299 290.401L368.799 204.401L368.201 203.599L252.701 289.599L253.299 290.401ZM179.673 334.469C191.124 330.25 205.786 322.018 219.441 313.461C233.103 304.899 245.789 295.992 253.299 290.401L252.701 289.599C245.211 295.175 232.547 304.067 218.909 312.614C205.264 321.165 190.676 329.35 179.327 333.531L179.673 334.469ZM115.563 334.243C119.46 341.258 128.483 343.876 139.891 343.5C151.34 343.122 165.396 339.729 179.673 334.469L179.327 333.531C165.104 338.771 151.16 342.128 139.859 342.5C128.517 342.874 120.04 340.242 116.437 333.757L115.563 334.243ZM112.011 290.896C108.502 307.439 107.976 320.586 115.563 334.243L116.437 333.757C109.024 320.414 109.498 307.561 112.989 291.104L112.011 290.896ZM137.546 213.29C128.028 233.83 115.517 274.366 112.011 290.896L112.989 291.104C116.483 274.634 128.972 234.17 138.454 213.71L137.546 213.29ZM188.069 123.246C174.409 146.402 145.159 196.861 137.546 213.29L138.454 213.71C146.041 197.339 175.258 146.932 188.931 123.754L188.069 123.246ZM395.475 268.845C389.483 250.47 385.655 232.892 384.492 226.412L383.508 226.588C384.678 233.108 388.517 250.73 394.525 269.155L395.475 268.845ZM429.232 314.557C424.065 311.851 417.492 306.157 411.268 298.253C405.05 290.356 399.205 280.283 395.475 268.845L394.525 269.155C398.295 280.717 404.2 290.894 410.482 298.872C416.758 306.843 423.435 312.649 428.768 315.443L429.232 314.557ZM472.855 319.021C456.509 323.975 439.646 320.012 429.232 314.557L428.768 315.443C439.354 320.988 456.491 325.025 473.145 319.979L472.855 319.021ZM493.096 308.706C492.491 309.537 490.739 311.12 487.451 313.004C484.18 314.878 479.424 317.031 472.855 319.021L473.145 319.979C479.776 317.969 484.603 315.788 487.949 313.871C491.278 311.963 493.176 310.296 493.904 309.294L493.096 308.706ZM459.112 269.315C469.518 282.123 486.123 301.329 493.124 309.329L493.876 308.671C486.877 300.671 470.282 281.477 459.888 268.685L459.112 269.315ZM410.837 229.973C418.752 232.693 427.571 238.523 436.052 245.694C444.526 252.86 452.629 261.337 459.112 269.315L459.888 268.685C453.371 260.663 445.224 252.14 436.698 244.931C428.179 237.727 419.248 231.807 411.163 229.027L410.837 229.973ZM384.111 226.988C387.68 226.176 398.118 225.601 410.837 229.973L411.163 229.027C398.282 224.599 387.654 225.157 383.889 226.012L384.111 226.988ZM512.832 305.874C518.079 301.21 526.55 293.839 534.907 286.884C543.274 279.922 551.499 273.403 556.265 270.424L555.735 269.576C550.901 272.597 542.626 279.161 534.268 286.116C525.9 293.078 517.421 300.457 512.168 305.126L512.832 305.874ZM539.879 324.015C538.038 324.475 535.809 324.035 533.354 322.927C530.909 321.823 528.305 320.085 525.749 318.047C520.639 313.971 515.789 308.749 512.888 305.184L512.112 305.816C515.044 309.418 519.944 314.696 525.126 318.828C527.716 320.894 530.393 322.687 532.943 323.839C535.483 324.985 537.962 325.525 540.121 324.985L539.879 324.015ZM559.804 299.79C556.352 306.746 553.621 312.243 550.608 316.297C547.61 320.33 544.36 322.895 539.879 324.015L540.121 324.985C544.885 323.794 548.316 321.056 551.41 316.894C554.489 312.752 557.262 307.161 560.7 300.235L559.804 299.79ZM561.553 296.276C560.948 297.485 560.367 298.657 559.804 299.79L560.7 300.235C561.263 299.101 561.844 297.931 562.447 296.724L561.553 296.276ZM572.012 267.608C572.477 269.702 571.906 272.827 570.157 277.513C568.417 282.173 565.553 288.277 561.553 296.276L562.447 296.724C566.447 288.723 569.333 282.577 571.093 277.862C572.844 273.173 573.523 269.798 572.988 267.392L572.012 267.608ZM556.265 270.424C559.256 268.555 561.705 267.192 563.71 266.266C565.72 265.339 567.255 264.864 568.425 264.748C569.583 264.632 570.339 264.869 570.862 265.317C571.4 265.778 571.772 266.53 572.012 267.608L572.988 267.392C572.728 266.22 572.287 265.222 571.513 264.558C570.723 263.881 569.667 263.618 568.325 263.752C566.995 263.886 565.343 264.411 563.29 265.359C561.233 266.308 558.744 267.695 555.735 269.576L556.265 270.424ZM216.5 405.5V420.5H217.5V405.5H216.5ZM231.5 405H217V406H231.5V405ZM232 420.5V405.5H231V420.5H232ZM217 421H231.5V420H217V421ZM16.5 480.5V433.5H15.5V480.5H16.5ZM32 496.5C24.9463 496.5 20.946 493.817 18.7665 490.536C16.5655 487.222 16.1733 483.225 16.4964 480.56L15.5036 480.44C15.16 483.275 15.5678 487.528 17.9335 491.089C20.3206 494.683 24.6537 497.5 32 497.5V496.5ZM53.5 496.5H32V497.5H53.5V496.5ZM53 433.5V497H54V433.5H53ZM68.5 433H53.5V434H68.5V433ZM69 507.5V433.5H68V507.5H69ZM21 508H68.5V507H21V508ZM1.00018 469.987C0.749761 479.754 1.49646 489.216 4.41311 496.254C5.87438 499.78 7.89014 502.722 10.6208 504.782C13.3571 506.846 16.7781 508 21 508V507C16.9719 507 13.7679 505.904 11.223 503.984C8.67238 502.059 6.75064 499.282 5.33692 495.871C2.50357 489.034 1.75028 479.746 1.99986 470.013L1.00018 469.987ZM1.00024 433.515C1.16669 439.174 1.39991 454.398 1.00018 469.987L1.99986 470.013C2.40013 454.402 2.16669 439.159 1.9998 433.485L1.00024 433.515ZM16 433H1.50002V434H16V433ZM135.5 433H91V434H135.5V433ZM161.999 459.969C161.742 455.864 159.579 449.146 155.274 443.449C150.959 437.738 144.45 433 135.5 433V434C144.05 434 150.291 438.512 154.476 444.051C158.671 449.604 160.758 456.136 161.001 460.031L161.999 459.969ZM162.118 472.146C162.227 468.533 162.327 465.211 161.999 459.969L161.001 460.031C161.326 465.225 161.227 468.51 161.119 472.116L162.118 472.146ZM162.118 472.131V472.131H161.118V472.131H162.118ZM162 478.5C162 476.074 162.06 474.07 162.118 472.146L161.119 472.116C161.061 474.04 161 476.058 161 478.5H162ZM131.5 508C142.693 508 150.33 502.395 155.151 495.924C159.955 489.477 162 482.124 162 478.5H161C161 481.876 159.045 489.023 154.349 495.326C149.67 501.605 142.307 507 131.5 507V508ZM106.5 508H131.5V507H106.5V508ZM107 532V507.5H106V532H107ZM91 532.5H106.5V531.5H91V532.5ZM90.5 433.5V532H91.5V433.5H90.5ZM179 433.5V507.5H180V433.5H179ZM194 433H179.5V434H194V433ZM194.5 507.5V433.5H193.5V507.5H194.5ZM179.5 508H194V507H179.5V508ZM231.5 433H217V434H231.5V433ZM232 507.5V433.5H231V507.5H232ZM217 508H231.5V507H217V508ZM216.5 433.5V507.5H217.5V433.5H216.5ZM194 420H179.5V421H194V420ZM193.5 405.5V420.5H194.5V405.5H193.5ZM179.5 406H194V405H179.5V406ZM180 420.5V405.5H179V420.5H180ZM261 405.5V433.5H262V405.5H261ZM276.5 405H261.5V406H276.5V405ZM277 433.5V405.5H276V433.5H277ZM299 433H276.5V434H299V433ZM299.5 444.5V433.5H298.5V444.5H299.5ZM276.5 445H299V444H276.5V445ZM277 485.5V444.5H276V485.5H277ZM285 496C282.055 496 280.121 495.385 278.888 493.872C277.629 492.327 277 489.73 277 485.5H276C276 489.77 276.621 492.673 278.112 494.503C279.629 496.365 281.945 497 285 497V496ZM299 496H285V497H299V496ZM299.5 507.5V496.5H298.5V507.5H299.5ZM279 508H299V507H279V508ZM261 491.5C261 497.398 263.316 501.547 266.757 504.208C270.179 506.855 274.671 508 279 508V507C274.829 507 270.571 505.895 267.368 503.417C264.184 500.953 262 497.102 262 491.5H261ZM261 444.5V491.5H262V444.5H261ZM246.5 445H261.5V444H246.5V445ZM246 433.5V444.5H247V433.5H246ZM261.5 433H246.5V434H261.5V433ZM363.5 433H312.5V434H363.5V433ZM383 452C383 447.65 381.594 442.904 378.442 439.237C375.278 435.556 370.386 433 363.5 433V434C370.114 434 374.722 436.444 377.683 439.888C380.656 443.346 382 447.85 382 452H383ZM383 507.5V452H382V507.5H383ZM332.5 508H382.5V507H332.5V508ZM309 485.486C308.746 494.379 311.931 500.044 316.579 503.465C321.197 506.865 327.193 508 332.5 508V507C327.307 507 321.553 505.885 317.171 502.66C312.819 499.456 309.754 494.121 310 485.514L309 485.486ZM330 462C325.404 462 320.276 463.404 316.227 467.067C312.17 470.738 309.253 476.627 309 485.486L310 485.514C310.247 476.873 313.08 471.262 316.898 467.808C320.724 464.346 325.596 463 330 463V462ZM367.5 462H330V463H367.5V462ZM363.2 447.9C365.455 449.591 366.584 452.32 367.057 455.121C367.529 457.916 367.333 460.705 367.009 462.406L367.991 462.594C368.334 460.795 368.538 457.884 368.043 454.954C367.549 452.03 366.345 449.009 363.8 447.1L363.2 447.9ZM312.517 445C320.009 444.75 331.547 444.6 341.807 444.962C346.939 445.143 351.74 445.452 355.552 445.938C357.459 446.181 359.108 446.468 360.423 446.802C361.753 447.139 362.684 447.513 363.2 447.9L363.8 447.1C363.116 446.587 362.022 446.176 360.669 445.832C359.3 445.485 357.607 445.192 355.679 444.946C351.823 444.454 346.986 444.144 341.843 443.963C331.553 443.6 319.991 443.75 312.483 444L312.517 445ZM312 433.5V444.5H313V433.5H312ZM405.5 485H452V484H405.5V485ZM405 469.5V484.5H406V469.5H405ZM452 469H405.5V470H452V469ZM452.5 484.5V469.5H451.5V484.5H452.5ZM483 433.5V507.5H484V433.5H483ZM498 433H483.5V434H498V433ZM498.5 507.5V433.5H497.5V507.5H498.5ZM483.5 508H498V507H483.5V508ZM483 405.5V421H484V405.5H483ZM498 405H483.5V406H498V405ZM498.5 421V405.5H497.5V421H498.5ZM483.5 421.5H498V420.5H483.5V421.5ZM523 532V433.5H522V532H523ZM538 531.5H522.5V532.5H538V531.5ZM537.5 508.5V532H538.5V508.5H537.5ZM560.5 508H538V509H560.5V508ZM592.501 478.965C591.761 489.574 587.206 496.815 581.136 501.414C575.051 506.023 567.413 508 560.5 508V509C567.587 509 575.449 506.977 581.739 502.211C588.044 497.435 592.739 489.926 593.499 479.035L592.501 478.965ZM581.704 440.403C588.996 445.75 593.997 457.526 592.501 478.965L593.499 479.035C595.003 457.474 590.004 445.25 582.296 439.597L581.704 440.403ZM562 434C567.428 434 574.314 434.984 581.704 440.403L582.296 439.597C574.686 434.016 567.572 433 562 433V434ZM522.5 434H562V433H522.5V434ZM609 433.5V508.5H610V433.5H609ZM642 433H609.5V434H642V433ZM645.142 432.987C644.14 432.993 643.096 433 642 433V434C643.1 434 644.147 433.993 645.149 433.987L645.142 432.987ZM645.146 432.987H645.146V433.987H645.146V432.987ZM665.69 436.038C658.073 432.901 652.814 432.938 645.143 432.987L645.149 433.987C652.81 433.938 657.893 433.908 665.31 436.962L665.69 436.038ZM677.5 459.5C677.5 455.198 676.742 450.254 674.897 445.929C673.053 441.604 670.101 437.854 665.69 436.038L665.31 436.962C669.399 438.646 672.197 442.146 673.978 446.321C675.758 450.496 676.5 455.302 676.5 459.5H677.5ZM677.5 508.5V459.5H676.5V508.5H677.5ZM662 509H677V508H662V509ZM661.5 468V508.5H662.5V468H661.5ZM658.576 450.265C659.769 452.174 660.507 454.963 660.942 458.13C661.375 461.286 661.5 464.76 661.5 468H662.5C662.5 464.74 662.375 461.214 661.933 457.995C661.493 454.787 660.731 451.826 659.424 449.735L658.576 450.265ZM646.5 445.5C648.718 445.5 651.16 445.747 653.342 446.474C655.522 447.201 657.407 448.395 658.576 450.265L659.424 449.735C658.093 447.605 655.978 446.299 653.658 445.526C651.34 444.753 648.782 444.5 646.5 444.5V445.5ZM625 445.5H646.5V444.5H625V445.5ZM625.5 508.5V445H624.5V508.5H625.5ZM609.5 509H625V508H609.5V509ZM537.5 445V497H538.5V445H537.5ZM559 444.5H538V445.5H559V444.5ZM578 470C578 462.699 576.617 456.336 573.539 451.782C570.442 447.2 565.657 444.5 559 444.5V445.5C565.343 445.5 569.808 448.05 572.711 452.343C575.633 456.664 577 462.801 577 470H578ZM559 497.5C563.065 497.5 566.31 496.706 568.886 495.256C571.465 493.804 573.341 491.713 574.691 489.172C577.38 484.116 578 477.255 578 470H577C577 477.245 576.37 483.884 573.809 488.703C572.534 491.099 570.785 493.039 568.395 494.385C566.002 495.732 562.935 496.5 559 496.5V497.5ZM538 497.5H559V496.5H538V497.5ZM106.5 445.5V496.5H107.5V445.5H106.5ZM127 445H107V446H127V445ZM147 467.5C147 459.423 144.98 453.776 141.419 450.15C137.857 446.522 132.832 445 127 445V446C132.668 446 137.393 447.478 140.706 450.85C144.02 454.224 146 459.577 146 467.5H147ZM127 497C134.189 497 139.221 493.646 142.43 488.256C145.62 482.897 147 475.544 147 467.5H146C146 475.456 144.63 482.603 141.57 487.744C138.529 492.854 133.811 496 127 496V497ZM107 497H127V496H107V497ZM367 473.5H337.5V474.5H367V473.5ZM367.5 496V474H366.5V496H367.5ZM337.5 496.5H367V495.5H337.5V496.5ZM325.001 484.967C324.746 488.789 325.503 491.719 327.596 493.678C329.673 495.62 332.956 496.5 337.5 496.5V495.5C333.044 495.5 330.077 494.63 328.279 492.947C326.497 491.281 325.754 488.711 325.999 485.033L325.001 484.967ZM337.5 473.5C333.678 473.5 330.664 474.392 328.539 476.317C326.412 478.245 325.256 481.137 325.001 484.967L325.999 485.033C326.244 481.363 327.338 478.755 329.211 477.058C331.086 475.358 333.822 474.5 337.5 474.5V473.5Z" fill="black"/>
</svg>
